<svg width="1136" height="1085" viewBox="0 0 1136 1085" fill="none" xmlns="http://www.w3.org/2000/svg">
<circle cx="574.592" cy="584.001" r="467.219" fill="#252525"/>
<path d="M573.43 1074.26C825.803 1074.26 1033.68 883.687 1060.98 638.603C1061.57 633.295 1057.33 628.37 1051.43 628.368L95.407 628.048C89.502 628.046 85.2556 632.969 85.8435 638.278C113.008 883.51 320.954 1074.26 573.43 1074.26Z" fill="#F8F8F8" stroke="#252525" stroke-width="20"/>
<path d="M574.592 94.7432C826.965 94.7432 1034.84 285.316 1062.14 530.399C1062.73 535.707 1058.49 540.633 1052.59 540.635L96.5686 540.954C90.6636 540.956 86.4172 536.033 87.0051 530.725C114.17 285.493 322.115 94.7432 574.592 94.7432Z" fill="#746EAF" stroke="#252525" stroke-width="20"/>
<circle cx="574.592" cy="584.002" r="183.55" fill="#252525"/>
<circle cx="574.592" cy="584.002" r="116.805" fill="#F8F8F8"/>
<g filter="url(#filter0_d_1_7)">
<circle cx="574.592" cy="584.002" r="83.432" fill="#F8F8F8"/>
<circle cx="574.592" cy="584.002" r="73.432" stroke="#252525" stroke-width="20"/>
</g>
<path d="M567.161 235.562C546.622 199.685 533.544 180.794 507.276 149.4C440.487 222.425 415.608 276.106 371.617 379.165L372.691 378.879C393.356 373.376 405.271 370.204 432.724 363.888C455.23 314.46 468.443 286.347 497.498 232.507L567.161 353.499L640.49 232.507L700.986 369.387C727.404 373.411 740.095 377.228 762.705 384.053C724.14 279.294 698.667 226.071 640.49 149.4C604.299 188.039 588.563 208.948 567.161 235.562Z" fill="#F8F8F8"/>
<path d="M412.145 122.643C410.608 124.735 408.873 127.089 406.957 129.675C398.573 140.995 386.753 156.76 373.021 174.535C345.5 210.157 310.506 253.574 280.131 285.48C248.482 318.722 202.999 356.52 165.15 386.182C146.28 400.971 129.407 413.66 117.255 422.65C114.119 424.97 111.296 427.042 108.837 428.841C89.4732 360.285 98.9534 256.972 162.58 187.337C229.915 113.644 340.071 102.173 412.145 122.643Z" fill="#D14780" stroke="#252525" stroke-width="20"/>
<path d="M723.703 112.546C725.241 114.638 726.976 116.992 728.891 119.578C737.276 130.897 749.095 146.663 762.827 164.438C790.348 200.06 825.342 243.477 855.718 275.383C887.366 308.625 932.85 346.422 970.699 376.085C989.569 390.874 1006.44 403.563 1018.59 412.553C1021.73 414.873 1024.55 416.945 1027.01 418.744C1046.38 350.187 1036.9 246.875 973.268 177.24C905.933 103.547 795.778 92.0759 723.703 112.546Z" fill="#D14780" stroke="#252525" stroke-width="20"/>
<defs>
<filter id="filter0_d_1_7" x="491.16" y="500.57" width="176.864" height="176.864" filterUnits="userSpaceOnUse" color-interpolation-filters="sRGB">
<feFlood flood-opacity="0" result="BackgroundImageFix"/>
<feColorMatrix in="SourceAlpha" type="matrix" values="0 0 0 0 0 0 0 0 0 0 0 0 0 0 0 0 0 0 127 0" result="hardAlpha"/>
<feOffset dx="10" dy="10"/>
<feColorMatrix type="matrix" values="0 0 0 0 0 0 0 0 0 0 0 0 0 0 0 0 0 0 0.25 0"/>
<feBlend mode="normal" in2="BackgroundImageFix" result="effect1_dropShadow_1_7"/>
<feBlend mode="normal" in="SourceGraphic" in2="effect1_dropShadow_1_7" result="shape"/>
</filter>
</defs>
</svg>
