<svg width="1000" height="1000" viewBox="0 0 1000 1000" fill="none" xmlns="http://www.w3.org/2000/svg">
<circle cx="500.592" cy="499.257" r="467.219" fill="#252525"/>
<path d="M499.431 989.516C751.804 989.516 959.68 798.943 986.982 553.86C987.574 548.552 983.33 543.626 977.426 543.624L21.4072 543.305C15.5022 543.303 11.2558 548.226 11.8438 553.534C39.0083 798.766 246.954 989.516 499.431 989.516Z" fill="#F8F8F8" stroke="#252525" stroke-width="20"/>
<path d="M500.592 10C752.965 10 960.841 200.573 988.144 445.656C988.735 450.964 984.492 455.89 978.587 455.892L22.5688 456.211C16.6638 456.213 12.4174 451.29 13.0054 445.981C40.1699 200.75 248.115 10 500.592 10Z" fill="#FF4C41" stroke="#252525" stroke-width="20"/>
<circle cx="500.592" cy="499.257" r="183.55" fill="#252525"/>
<circle cx="500.592" cy="499.257" r="116.805" fill="#F8F8F8"/>
<g filter="url(#filter0_d_1_71)">
<circle cx="500.593" cy="499.257" r="83.432" fill="#F8F8F8"/>
<circle cx="500.593" cy="499.257" r="73.432" stroke="#252525" stroke-width="20"/>
</g>
<defs>
<filter id="filter0_d_1_71" x="417.161" y="415.825" width="176.864" height="176.864" filterUnits="userSpaceOnUse" color-interpolation-filters="sRGB">
<feFlood flood-opacity="0" result="BackgroundImageFix"/>
<feColorMatrix in="SourceAlpha" type="matrix" values="0 0 0 0 0 0 0 0 0 0 0 0 0 0 0 0 0 0 127 0" result="hardAlpha"/>
<feOffset dx="10" dy="10"/>
<feColorMatrix type="matrix" values="0 0 0 0 0 0 0 0 0 0 0 0 0 0 0 0 0 0 0.25 0"/>
<feBlend mode="normal" in2="BackgroundImageFix" result="effect1_dropShadow_1_71"/>
<feBlend mode="normal" in="SourceGraphic" in2="effect1_dropShadow_1_71" result="shape"/>
</filter>
</defs>
</svg>
