<svg width="57" height="57" viewBox="0 0 57 57" fill="none" xmlns="http://www.w3.org/2000/svg">
<path d="M30.7898 9.32471L38.8391 17.374L23.8137 32.3995C19.3682 27.954 19.3682 20.7463 23.8137 16.3008L30.7898 9.32471Z" fill="#1E1E1E"/>
<path d="M26.3068 8.49023L40.213 22.3965L37.7443 24.8651L23.8381 10.9589L26.3068 8.49023Z" fill="#1E1E1E"/>
<mask id="path-3-outside-1_203_219" maskUnits="userSpaceOnUse" x="14.5099" y="-0.742339" width="35.3553" height="35.3553" fill="black">
<rect fill="white" x="14.5099" y="-0.742339" width="35.3553" height="35.3553"/>
<path fill-rule="evenodd" clip-rule="evenodd" d="M39.9791 21.7336L41.5222 7.17808L26.9667 8.72121L30.2532 12.0077L25.4236 16.8373C21.8672 20.3937 21.8672 26.1598 25.4236 29.7162L36.6926 18.4472L39.9791 21.7336Z"/>
</mask>
<path fill-rule="evenodd" clip-rule="evenodd" d="M39.9791 21.7336L41.5222 7.17808L26.9667 8.72121L30.2532 12.0077L25.4236 16.8373C21.8672 20.3937 21.8672 26.1598 25.4236 29.7162L36.6926 18.4472L39.9791 21.7336Z" fill="#EAEAEC"/>
<path d="M41.5222 7.17808L41.8205 7.20971L41.8597 6.84062L41.4906 6.87975L41.5222 7.17808ZM39.9791 21.7336L39.7669 21.9458L40.2112 22.39L40.2774 21.7653L39.9791 21.7336ZM26.9667 8.72121L26.935 8.42289L26.3103 8.48912L26.7545 8.93335L26.9667 8.72121ZM30.2532 12.0077L30.4653 12.2199L30.6774 12.0077L30.4653 11.7956L30.2532 12.0077ZM25.4236 29.7162L25.2115 29.9283L25.4236 30.1405L25.6358 29.9283L25.4236 29.7162ZM36.6926 18.4472L36.9048 18.2351L36.6926 18.0229L36.4805 18.2351L36.6926 18.4472ZM41.2239 7.14645L39.6807 21.702L40.2774 21.7653L41.8205 7.20971L41.2239 7.14645ZM26.9983 9.01954L41.5538 7.47641L41.4906 6.87975L26.935 8.42289L26.9983 9.01954ZM30.4653 11.7956L27.1788 8.50908L26.7545 8.93335L30.041 12.2199L30.4653 11.7956ZM25.6358 17.0494L30.4653 12.2199L30.041 11.7956L25.2115 16.6251L25.6358 17.0494ZM25.6358 29.5041C22.1965 26.0648 22.1965 20.4887 25.6358 17.0494L25.2115 16.6251C21.5379 20.2987 21.5379 26.2548 25.2115 29.9283L25.6358 29.5041ZM36.4805 18.2351L25.2115 29.5041L25.6358 29.9283L36.9048 18.6593L36.4805 18.2351ZM40.1912 21.5215L36.9048 18.2351L36.4805 18.6593L39.7669 21.9458L40.1912 21.5215Z" fill="#1E1E1E" mask="url(#path-3-outside-1_203_219)"/>
<path d="M17.7793 31.0964L31.6873 45.0044L29.4331 47.2585L15.5251 33.3506L17.7793 31.0964Z" fill="#1E1E1E"/>
<path d="M14.072 48.5494L15.6153 33.9937L15.6485 33.6815L29.1049 47.138L28.7928 47.1711L14.237 48.7145L14.0526 48.7331L14.072 48.5494Z" fill="#1E1E1E" stroke="#1E1E1E" stroke-width="0.3"/>
<mask id="path-7-outside-2_203_219" maskUnits="userSpaceOnUse" x="8.67396" y="19.1795" width="35.3553" height="35.3553" fill="black">
<rect fill="white" x="8.67396" y="19.1795" width="35.3553" height="35.3553"/>
<path fill-rule="evenodd" clip-rule="evenodd" d="M21.1974 35.1492L32.4664 23.8801C36.0228 27.4365 36.0228 33.2026 32.4664 36.7591L27.6368 41.5886L30.9234 44.8752L16.3679 46.4184L17.911 31.8628L21.1974 35.1492Z"/>
</mask>
<path fill-rule="evenodd" clip-rule="evenodd" d="M21.1974 35.1492L32.4664 23.8801C36.0228 27.4365 36.0228 33.2026 32.4664 36.7591L27.6368 41.5886L30.9234 44.8752L16.3679 46.4184L17.911 31.8628L21.1974 35.1492Z" fill="#EAEAEC"/>
<path d="M21.1974 35.1492L20.9852 35.3613L21.1974 35.5734L21.4095 35.3613L21.1974 35.1492ZM32.4664 23.8801L32.6786 23.668L32.4664 23.4559L32.2543 23.668L32.4664 23.8801ZM32.4664 36.7591L32.6786 36.9712L32.4664 36.7591ZM27.6368 41.5886L27.4247 41.3765L27.2126 41.5886L27.4247 41.8008L27.6368 41.5886ZM30.9234 44.8752L30.955 45.1735L31.5798 45.1073L31.1355 44.6631L30.9234 44.8752ZM16.3679 46.4184L16.0695 46.3867L16.0304 46.7558L16.3995 46.7167L16.3679 46.4184ZM17.911 31.8628L18.1231 31.6507L17.6789 31.2064L17.6127 31.8312L17.911 31.8628ZM21.4095 35.3613L32.6786 24.0923L32.2543 23.668L20.9852 34.937L21.4095 35.3613ZM32.2543 24.0923C35.6936 27.5315 35.6936 33.1077 32.2543 36.5469L32.6786 36.9712C36.3521 33.2976 36.3521 27.3416 32.6786 23.668L32.2543 24.0923ZM32.2543 36.5469L27.4247 41.3765L27.849 41.8008L32.6786 36.9712L32.2543 36.5469ZM27.4247 41.8008L30.7113 45.0873L31.1355 44.6631L27.849 41.3765L27.4247 41.8008ZM30.8918 44.5769L16.3362 46.12L16.3995 46.7167L30.955 45.1735L30.8918 44.5769ZM16.6662 46.45L18.2093 31.8944L17.6127 31.8312L16.0695 46.3867L16.6662 46.45ZM17.6989 32.0749L20.9852 35.3613L21.4095 34.937L18.1231 31.6507L17.6989 32.0749Z" fill="#1E1E1E" mask="url(#path-7-outside-2_203_219)"/>
</svg>
